<svg width="163" height="143" viewBox="0 0 163 143" fill="none" xmlns="http://www.w3.org/2000/svg">
<path d="M60 127H67C97.9279 127 123 101.928 123 71V56H4V71C4 101.928 29.0721 127 60 127Z" stroke="black" stroke-width="8"/>
<path d="M130.996 56.2612L125.345 55.6846L121.775 80.9876C121.68 81.6592 121.537 82.323 121.346 82.9738L115.048 104.435L122.526 106.219C136.927 109.655 151.201 100.092 153.502 85.4668C155.765 71.0787 145.486 57.7399 130.996 56.2612Z" stroke="black" stroke-width="8"/>
<path d="M20 139H107C114.455 139 120.72 133.901 122.496 127H4.50407C6.28024 133.901 12.5446 139 20 139Z" stroke="black" stroke-width="8"/>
<path d="M43.7508 3C64.2436 19.1875 26.2569 27.2812 43.7508 40" stroke="black" stroke-width="6" stroke-linecap="round"/>
<path d="M83.7508 3C104.244 19.1875 66.2569 27.2812 83.7508 40" stroke="black" stroke-width="6" stroke-linecap="round"/>
<path d="M63.7508 3C84.2436 19.1875 46.2569 27.2812 63.7508 40" stroke="black" stroke-width="6" stroke-linecap="round"/>
</svg>
