<svg width="243" height="295" viewBox="0 0 243 295" fill="none" xmlns="http://www.w3.org/2000/svg">
<path d="M22.1936 74.9759C20.9914 66.5431 27.5354 59 36.0535 59H207.041C215.536 59 222.073 66.5047 220.908 74.9197L192.946 276.92C191.987 283.844 186.068 289 179.078 289H64.851C57.8823 289 51.9746 283.875 50.9911 276.976L22.1936 74.9759Z" stroke="black" stroke-width="12"/>
<rect x="6" y="29" width="231" height="31" rx="15.5" stroke="black" stroke-width="12"/>
<rect x="39" y="6" width="167" height="18" rx="9" stroke="black" stroke-width="12"/>
<line x1="25.0306" y1="91.0001" x2="221.031" y2="92.0001" stroke="black" stroke-width="12"/>
<line x1="39" y1="186" x2="207" y2="186" stroke="black" stroke-width="12"/>
<path d="M144.002 137.111V138.355L144.497 139.497C147.514 146.46 148.901 152.649 149.02 157.657C149.139 162.709 147.973 166.157 146.379 168.221C144.919 170.111 142.679 171.41 139.073 171.471C135.266 171.536 129.894 170.183 122.946 166.272L121.575 165.5H120.002C113.956 165.5 108.018 162.231 103.402 156.682C98.7819 151.128 96.0023 143.863 96.0023 137.111C96.0023 136.663 96.0021 136.214 96.0018 135.765C95.9969 127.591 95.9919 119.263 97.6096 112.799C98.4461 109.457 99.5781 107.252 100.842 105.936C101.92 104.811 103.396 104 106.002 104C108.903 104 112.797 105.025 117.253 107.182C121.635 109.302 126.183 112.335 130.295 115.884C134.414 119.44 137.942 123.381 140.397 127.234C142.898 131.16 144.002 134.545 144.002 137.111Z" stroke="black" stroke-width="12"/>
<path d="M103.917 98L115.613 134.134L145.917 163" stroke="black" stroke-width="10"/>
</svg>
