<svg width="198" height="183" viewBox="0 0 198 183" fill="none" xmlns="http://www.w3.org/2000/svg">
<g filter="url(#filter0_d_101_11)">
<path d="M80 147H87C117.928 147 143 121.928 143 91V76H24V91C24 121.928 49.0721 147 80 147Z" stroke="#EACD35" stroke-width="8"/>
<path d="M150.996 76.2612L145.345 75.6846L141.775 100.988C141.68 101.659 141.537 102.323 141.346 102.974L135.048 124.435L142.526 126.219C156.927 129.655 171.201 120.092 173.502 105.467C175.765 91.0787 165.486 77.7399 150.996 76.2612Z" stroke="#EACD35" stroke-width="8"/>
<path d="M40 159H127C134.455 159 140.72 153.901 142.496 147H24.5041C26.2802 153.901 32.5446 159 40 159Z" stroke="#EACD35" stroke-width="8"/>
<path d="M63.7508 23C84.2436 39.1875 46.2569 47.2812 63.7508 60" stroke="#EACD35" stroke-width="6" stroke-linecap="round"/>
<path d="M103.751 23C124.244 39.1875 86.2569 47.2812 103.751 60" stroke="#EACD35" stroke-width="6" stroke-linecap="round"/>
<path d="M83.7508 23C104.244 39.1875 66.2569 47.2812 83.7508 60" stroke="#EACD35" stroke-width="6" stroke-linecap="round"/>
</g>
<defs>
<filter id="filter0_d_101_11" x="0" y="-0.000244141" width="197.815" height="183" filterUnits="userSpaceOnUse" color-interpolation-filters="sRGB">
<feFlood flood-opacity="0" result="BackgroundImageFix"/>
<feColorMatrix in="SourceAlpha" type="matrix" values="0 0 0 0 0 0 0 0 0 0 0 0 0 0 0 0 0 0 127 0" result="hardAlpha"/>
<feOffset/>
<feGaussianBlur stdDeviation="10"/>
<feComposite in2="hardAlpha" operator="out"/>
<feColorMatrix type="matrix" values="0 0 0 0 1 0 0 0 0 0.96 0 0 0 0 0 0 0 0 0.8 0"/>
<feBlend mode="normal" in2="BackgroundImageFix" result="effect1_dropShadow_101_11"/>
<feBlend mode="normal" in="SourceGraphic" in2="effect1_dropShadow_101_11" result="shape"/>
</filter>
</defs>
</svg>
