<svg width="200" height="200" viewBox="0 0 200 200" fill="none" xmlns="http://www.w3.org/2000/svg">
<circle cx="100" cy="100" r="91.5" stroke="black" stroke-width="17"/>
<path d="M84.2159 123.241V121.261C84.2547 114.467 84.8565 109.051 86.0213 105.013C87.2249 100.975 88.9721 97.7135 91.2628 95.2287C93.5535 92.7438 96.3101 90.4919 99.5327 88.473C101.94 86.92 104.095 85.3087 105.997 83.6392C107.9 81.9697 109.414 80.1255 110.54 78.1065C111.666 76.0488 112.229 73.758 112.229 71.2344C112.229 68.5554 111.588 66.2064 110.307 64.1875C109.026 62.1686 107.298 60.6155 105.124 59.5284C102.988 58.4413 100.62 57.8977 98.0185 57.8977C95.4948 57.8977 93.107 58.4607 90.8551 59.5866C88.6032 60.6738 86.759 62.3044 85.3224 64.4787C83.8859 66.6141 83.1094 69.2737 82.9929 72.4574H59.2315C59.4257 64.6922 61.2893 58.286 64.8224 53.2386C68.3556 48.1525 73.0341 44.3669 78.858 41.8821C84.6818 39.3584 91.1075 38.0966 98.1349 38.0966C105.861 38.0966 112.695 39.3778 118.635 41.9403C124.575 44.464 129.234 48.133 132.612 52.9474C135.99 57.7618 137.679 63.5663 137.679 70.3608C137.679 74.9034 136.922 78.9413 135.408 82.4744C133.932 85.9687 131.855 89.0748 129.176 91.7926C126.497 94.4716 123.333 96.8982 119.683 99.0724C116.616 100.897 114.092 102.8 112.112 104.78C110.171 106.76 108.715 109.051 107.744 111.652C106.813 114.253 106.327 117.456 106.288 121.261V123.241H84.2159ZM95.7472 160.514C91.8646 160.514 88.545 159.155 85.7884 156.438C83.0706 153.681 81.7311 150.381 81.7699 146.537C81.7311 142.732 83.0706 139.471 85.7884 136.753C88.545 134.035 91.8646 132.676 95.7472 132.676C99.4356 132.676 102.678 134.035 105.473 136.753C108.268 139.471 109.686 142.732 109.724 146.537C109.686 149.099 109.006 151.448 107.686 153.584C106.405 155.68 104.716 157.369 102.619 158.651C100.523 159.893 98.232 160.514 95.7472 160.514Z" fill="black"/>
</svg>
