<svg width="137" height="269" viewBox="0 0 137 269" fill="none" xmlns="http://www.w3.org/2000/svg">
<path d="M58.5112 174.663L10 239.093V10H127V240.442L74.3155 174.44L66.2692 164.36L58.5112 174.663Z" stroke="white" stroke-width="20"/>
<path d="M57.6406 80.5156L50.7031 78.7344L54.125 44.75H89.1406V52.7656H61.4844L59.4219 71.3281C60.6719 70.6094 62.25 69.9375 64.1562 69.3125C66.0938 68.6875 68.3125 68.375 70.8125 68.375C73.9688 68.375 76.7969 68.9219 79.2969 70.0156C81.7969 71.0781 83.9219 72.6094 85.6719 74.6094C87.4531 76.6094 88.8125 79.0156 89.75 81.8281C90.6875 84.6406 91.1562 87.7812 91.1562 91.25C91.1562 94.5312 90.7031 97.5469 89.7969 100.297C88.9219 103.047 87.5938 105.453 85.8125 107.516C84.0312 109.547 81.7812 111.125 79.0625 112.25C76.375 113.375 73.2031 113.938 69.5469 113.938C66.7969 113.938 64.1875 113.562 61.7188 112.812C59.2812 112.031 57.0938 110.859 55.1562 109.297C53.25 107.703 51.6875 105.734 50.4688 103.391C49.2812 101.016 48.5312 98.2344 48.2188 95.0469H56.4688C56.8438 97.6094 57.5938 99.7656 58.7188 101.516C59.8438 103.266 61.3125 104.594 63.125 105.5C64.9688 106.375 67.1094 106.812 69.5469 106.812C71.6094 106.812 73.4375 106.453 75.0312 105.734C76.625 105.016 77.9688 103.984 79.0625 102.641C80.1562 101.297 80.9844 99.6719 81.5469 97.7656C82.1406 95.8594 82.4375 93.7188 82.4375 91.3438C82.4375 89.1875 82.1406 87.1875 81.5469 85.3438C80.9531 83.5 80.0625 81.8906 78.875 80.5156C77.7188 79.1406 76.2969 78.0781 74.6094 77.3281C72.9219 76.5469 70.9844 76.1562 68.7969 76.1562C65.8906 76.1562 63.6875 76.5469 62.1875 77.3281C60.7188 78.1094 59.2031 79.1719 57.6406 80.5156Z" fill="white"/>
</svg>
