<svg width="137" height="269" viewBox="0 0 137 269" fill="none" xmlns="http://www.w3.org/2000/svg">
<path d="M58.5112 174.663L10 239.093V10H127V240.442L74.3155 174.44L66.2692 164.36L58.5112 174.663Z" stroke="white" stroke-width="20"/>
<path d="M91.3906 105.875V113H46.7188V106.766L69.0781 81.875C71.8281 78.8125 73.9531 76.2188 75.4531 74.0938C76.9844 71.9375 78.0469 70.0156 78.6406 68.3281C79.2656 66.6094 79.5781 64.8594 79.5781 63.0781C79.5781 60.8281 79.1094 58.7969 78.1719 56.9844C77.2656 55.1406 75.9219 53.6719 74.1406 52.5781C72.3594 51.4844 70.2031 50.9375 67.6719 50.9375C64.6406 50.9375 62.1094 51.5312 60.0781 52.7188C58.0781 53.875 56.5781 55.5 55.5781 57.5938C54.5781 59.6875 54.0781 62.0938 54.0781 64.8125H45.4062C45.4062 60.9688 46.25 57.4531 47.9375 54.2656C49.625 51.0781 52.125 48.5469 55.4375 46.6719C58.75 44.7656 62.8281 43.8125 67.6719 43.8125C71.9844 43.8125 75.6719 44.5781 78.7344 46.1094C81.7969 47.6094 84.1406 49.7344 85.7656 52.4844C87.4219 55.2031 88.25 58.3906 88.25 62.0469C88.25 64.0469 87.9062 66.0781 87.2188 68.1406C86.5625 70.1719 85.6406 72.2031 84.4531 74.2344C83.2969 76.2656 81.9375 78.2656 80.375 80.2344C78.8438 82.2031 77.2031 84.1406 75.4531 86.0469L57.1719 105.875H91.3906Z" fill="white"/>
</svg>
