<svg width="137" height="269" viewBox="0 0 137 269" fill="none" xmlns="http://www.w3.org/2000/svg">
<path d="M58.5112 174.663L10 239.093V10H127V240.442L74.3155 174.44L66.2692 164.36L58.5112 174.663Z" stroke="white" stroke-width="20"/>
<path d="M79.9531 44.6562H80.7031V52.0156H79.9531C75.3594 52.0156 71.5156 52.7656 68.4219 54.2656C65.3281 55.7344 62.875 57.7188 61.0625 60.2188C59.25 62.6875 57.9375 65.4688 57.125 68.5625C56.3438 71.6562 55.9531 74.7969 55.9531 77.9844V88.0156C55.9531 91.0469 56.3125 93.7344 57.0312 96.0781C57.75 98.3906 58.7344 100.344 59.9844 101.938C61.2344 103.531 62.6406 104.734 64.2031 105.547C65.7969 106.359 67.4531 106.766 69.1719 106.766C71.1719 106.766 72.9531 106.391 74.5156 105.641C76.0781 104.859 77.3906 103.781 78.4531 102.406C79.5469 101 80.375 99.3438 80.9375 97.4375C81.5 95.5312 81.7812 93.4375 81.7812 91.1562C81.7812 89.125 81.5312 87.1719 81.0312 85.2969C80.5312 83.3906 79.7656 81.7031 78.7344 80.2344C77.7031 78.7344 76.4062 77.5625 74.8438 76.7188C73.3125 75.8438 71.4844 75.4062 69.3594 75.4062C66.9531 75.4062 64.7031 76 62.6094 77.1875C60.5469 78.3438 58.8438 79.875 57.5 81.7812C56.1875 83.6562 55.4375 85.7031 55.25 87.9219L50.6562 87.875C51.0938 84.375 51.9062 81.3906 53.0938 78.9219C54.3125 76.4219 55.8125 74.3906 57.5938 72.8281C59.4062 71.2344 61.4219 70.0781 63.6406 69.3594C65.8906 68.6094 68.2656 68.2344 70.7656 68.2344C74.1719 68.2344 77.1094 68.875 79.5781 70.1562C82.0469 71.4375 84.0781 73.1562 85.6719 75.3125C87.2656 77.4375 88.4375 79.8438 89.1875 82.5312C89.9688 85.1875 90.3594 87.9219 90.3594 90.7344C90.3594 93.9531 89.9062 96.9688 89 99.7812C88.0938 102.594 86.7344 105.062 84.9219 107.188C83.1406 109.312 80.9375 110.969 78.3125 112.156C75.6875 113.344 72.6406 113.938 69.1719 113.938C65.4844 113.938 62.2656 113.188 59.5156 111.688C56.7656 110.156 54.4844 108.125 52.6719 105.594C50.8594 103.062 49.5 100.25 48.5938 97.1562C47.6875 94.0625 47.2344 90.9219 47.2344 87.7344V83.6562C47.2344 78.8438 47.7188 74.125 48.6875 69.5C49.6562 64.875 51.3281 60.6875 53.7031 56.9375C56.1094 53.1875 59.4375 50.2031 63.6875 47.9844C67.9375 45.7656 73.3594 44.6562 79.9531 44.6562Z" fill="white"/>
</svg>
