<svg width="137" height="269" viewBox="0 0 137 269" fill="none" xmlns="http://www.w3.org/2000/svg">
<path d="M58.5112 174.663L10 239.093V10H127V240.442L74.3155 174.44L66.2692 164.36L58.5112 174.663Z" stroke="white" stroke-width="20"/>
<path d="M59.3281 74.6094H65.5156C68.5469 74.6094 71.0469 74.1094 73.0156 73.1094C75.0156 72.0781 76.5 70.6875 77.4688 68.9375C78.4688 67.1562 78.9688 65.1562 78.9688 62.9375C78.9688 60.3125 78.5312 58.1094 77.6562 56.3281C76.7812 54.5469 75.4688 53.2031 73.7188 52.2969C71.9688 51.3906 69.75 50.9375 67.0625 50.9375C64.625 50.9375 62.4688 51.4219 60.5938 52.3906C58.75 53.3281 57.2969 54.6719 56.2344 56.4219C55.2031 58.1719 54.6875 60.2344 54.6875 62.6094H46.0156C46.0156 59.1406 46.8906 55.9844 48.6406 53.1406C50.3906 50.2969 52.8438 48.0312 56 46.3438C59.1875 44.6562 62.875 43.8125 67.0625 43.8125C71.1875 43.8125 74.7969 44.5469 77.8906 46.0156C80.9844 47.4531 83.3906 49.6094 85.1094 52.4844C86.8281 55.3281 87.6875 58.875 87.6875 63.125C87.6875 64.8438 87.2812 66.6875 86.4688 68.6562C85.6875 70.5938 84.4531 72.4062 82.7656 74.0938C81.1094 75.7812 78.9531 77.1719 76.2969 78.2656C73.6406 79.3281 70.4531 79.8594 66.7344 79.8594H59.3281V74.6094ZM59.3281 81.7344V76.5312H66.7344C71.0781 76.5312 74.6719 77.0469 77.5156 78.0781C80.3594 79.1094 82.5938 80.4844 84.2188 82.2031C85.875 83.9219 87.0312 85.8125 87.6875 87.875C88.375 89.9062 88.7188 91.9375 88.7188 93.9688C88.7188 97.1562 88.1719 99.9844 87.0781 102.453C86.0156 104.922 84.5 107.016 82.5312 108.734C80.5938 110.453 78.3125 111.75 75.6875 112.625C73.0625 113.5 70.2031 113.938 67.1094 113.938C64.1406 113.938 61.3438 113.516 58.7188 112.672C56.125 111.828 53.8281 110.609 51.8281 109.016C49.8281 107.391 48.2656 105.406 47.1406 103.062C46.0156 100.688 45.4531 97.9844 45.4531 94.9531H54.125C54.125 97.3281 54.6406 99.4062 55.6719 101.188C56.7344 102.969 58.2344 104.359 60.1719 105.359C62.1406 106.328 64.4531 106.812 67.1094 106.812C69.7656 106.812 72.0469 106.359 73.9531 105.453C75.8906 104.516 77.375 103.109 78.4062 101.234C79.4688 99.3594 80 97 80 94.1562C80 91.3125 79.4062 88.9844 78.2188 87.1719C77.0312 85.3281 75.3438 83.9688 73.1562 83.0938C71 82.1875 68.4531 81.7344 65.5156 81.7344H59.3281Z" fill="white"/>
</svg>
